<?xml version="1.0" encoding="UTF-8" standalone="no"?>
<svg
   xmlns:dc="http://purl.org/dc/elements/1.1/"
   xmlns:cc="http://creativecommons.org/ns#"
   xmlns:rdf="http://www.w3.org/1999/02/22-rdf-syntax-ns#"
   xmlns:svg="http://www.w3.org/2000/svg"
   xmlns="http://www.w3.org/2000/svg"
   xmlns:sodipodi="http://sodipodi.sourceforge.net/DTD/sodipodi-0.dtd"
   xmlns:inkscape="http://www.inkscape.org/namespaces/inkscape"
   height="20mm"
   width="20mm"
   version="1.1"
   viewBox="0 0 75.59055 75.59055"
   id="svg1068"
   sodipodi:docname="spotifylogo.svg"
   inkscape:version="1.0.2 (e86c870879, 2021-01-15)">
  <metadata
     id="metadata1074">
    <rdf:RDF>
      <cc:Work
         rdf:about="">
        <dc:format>image/svg+xml</dc:format>
        <dc:type
           rdf:resource="http://purl.org/dc/dcmitype/StillImage" />
        <dc:title></dc:title>
      </cc:Work>
    </rdf:RDF>
  </metadata>
  <defs
     id="defs1072" />
  <sodipodi:namedview
     pagecolor="#ffffff"
     bordercolor="#666666"
     borderopacity="1"
     objecttolerance="10"
     gridtolerance="10"
     guidetolerance="10"
     inkscape:pageopacity="0"
     inkscape:pageshadow="2"
     inkscape:window-width="1920"
     inkscape:window-height="1010"
     id="namedview1070"
     showgrid="false"
     units="mm"
     inkscape:zoom="4.6488095"
     inkscape:cx="61.198464"
     inkscape:cy="66.791293"
     inkscape:window-x="0"
     inkscape:window-y="0"
     inkscape:window-maximized="1"
     inkscape:current-layer="svg1068" />
  <path
     fill="#1ed760"
     d="M 38.04805,0.277 C 17.174863,0.277 0.253,17.198412 0.253,38.071599 c 0,20.874089 16.921863,37.794147 37.79505,37.794147 20.875443,0 37.795501,-16.920058 37.795501,-37.794147 0,-20.871833 -16.920058,-37.79279372 -37.795952,-37.79279372 z m 17.332566,54.510659 c -0.676983,1.110252 -2.130239,1.462283 -3.240491,0.780787 -8.873891,-5.420376 -20.045011,-6.647972 -33.201044,-3.642168 -1.267764,0.288846 -2.531465,-0.50548 -2.820311,-1.773695 -0.2902,-1.268214 0.500967,-2.531916 1.77189,-2.820762 14.397168,-3.290588 26.74669,-1.872986 36.709169,4.215347 1.110252,0.681496 1.462283,2.130239 0.780787,3.240491 z m 4.62605,-10.292396 c -0.852999,1.387815 -2.667313,1.825597 -4.052871,0.972599 -10.159256,-6.245844 -25.645464,-8.054291 -37.66191,-4.406707 -1.558414,0.470729 -3.204385,-0.407544 -3.677371,-1.96325 -0.469375,-1.558415 0.409349,-3.201227 1.965056,-3.675115 13.726053,-4.164798 30.790082,-2.147389 42.456754,5.021859 1.385558,0.852998 1.82334,2.667313 0.970342,4.051065 z m 0.397163,-10.716187 c -12.181178,-7.235141 -32.278542,-7.90039 -43.908656,-4.370601 -1.86757,0.566409 -3.842555,-0.487879 -4.408513,-2.355449 -0.565957,-1.868473 0.487428,-3.842104 2.356352,-4.409867 13.350553,-4.05287 35.544307,-3.269827 49.568684,5.055708 1.683431,0.99697 2.234044,3.166475 1.236622,4.844038 -0.992908,1.67982 -3.16828,2.233592 -4.842684,1.236171 z"
     id="path1066"
     style="stroke-width:0.999998;fill:#6aba9c;fill-opacity:1" />
</svg>
